<!-- Achievement SVGs -->
<svg style="display: none;">
  <!-- Basic Achievements (3-31 days) -->
  <symbol id="achievement-star" viewBox="0 0 24 24">
    <path d="M12 2l3.09 6.26L22 9.27l-5 4.87 1.18 6.88L12 17.77l-6.18 3.25L7 14.14 2 9.27l6.91-1.01L12 2z" fill="currentColor"/>
  </symbol>
  
  <symbol id="achievement-superstar" viewBox="0 0 24 24">
    <path d="M12 1L9 9l-8 .5 6 5.5-2 8 7-4 7 4-2-8 6-5.5L15 9z" fill="currentColor"/>
  </symbol>
  
  <symbol id="achievement-champion" viewBox="0 0 24 24">
    <path d="M19 5h-2V3H7v2H5c-1.1 0-2 .9-2 2v1c0 2.55 1.92 4.63 4.39 4.94.63 1.5 1.98 2.63 3.61 2.96V19H7v2h10v-2h-4v-3.1c1.63-.33 2.98-1.46 3.61-2.96C19.08 12.63 21 10.55 21 8V7c0-1.1-.9-2-2-2z" fill="currentColor"/>
  </symbol>
  
  <!-- Hall of Fame and Up (50+ days) -->
  <symbol id="achievement-hall-of-fame" viewBox="0 0 24 24">
    <path d="M11.99 2C6.47 2 2 6.48 2 12s4.47 10 9.99 10C17.52 22 22 17.52 22 12S17.52 2 11.99 2zm4.24 16L12 15.45 7.77 18l1.12-4.81-3.73-3.23 4.92-.42L12 5l1.92 4.53 4.92.42-3.73 3.23L16.23 18z" fill="currentColor"/>
  </symbol>
  
  <symbol id="achievement-invincible" viewBox="0 0 24 24">
    <path d="M12 1L3 5v6c0 5.55 3.84 10.74 9 12 5.16-1.26 9-6.45 9-12V5l-9-4zm0 10.99h7c-.53 4.12-3.28 7.79-7 8.94V12H5V6.3l7-3.11v8.8z" fill="currentColor"/>
  </symbol>
  
  <symbol id="achievement-legend" viewBox="0 0 24 24">
    <path d="M12 2C6.48 2 2 6.48 2 12s4.48 10 10 10 10-4.48 10-10S17.52 2 12 2zm0 18c-4.41 0-8-3.59-8-8s3.59-8 8-8 8 3.59 8 8-3.59 8-8 8zm-2-8h4v2h-4zm0-4h4v2h-4z" fill="currentColor"/>
  </symbol>
  
  <symbol id="achievement-golden" viewBox="0 0 24 24">
    <path d="M12 2C6.48 2 2 6.48 2 12s4.48 10 10 10 10-4.48 10-10S17.52 2 12 2zm0 18c-4.41 0-8-3.59-8-8s3.59-8 8-8 8 3.59 8 8-3.59 8-8 8z" fill="currentColor"/>
    <path d="M12 6l2.5 5 5.5.5-4 4 1 5.5-5-3-5 3 1-5.5-4-4 5.5-.5z" fill="currentColor"/>
  </symbol>
  
  <!-- Supreme and Up (250+ days) -->
  <symbol id="achievement-visionary" viewBox="0 0 24 24">
    <path d="M12 4.5C7 4.5 2.73 7.61 1 12c1.73 4.39 6 7.5 11 7.5s9.27-3.11 11-7.5c-1.73-4.39-6-7.5-11-7.5zM12 17c-2.76 0-5-2.24-5-5s2.24-5 5-5 5 2.24 5 5-2.24 5-5 5zm0-8c-1.66 0-3 1.34-3 3s1.34 3 3 3 3-1.34 3-3-1.34-3-3-3z" fill="currentColor"/>
  </symbol>
  
  <symbol id="achievement-supreme" viewBox="0 0 24 24">
    <path d="M12 2L2 19h20L12 2zm0 15.5c-1.1 0-2-.9-2-2s.9-2 2-2 2 .9 2 2-.9 2-2 2z" fill="currentColor"/>
  </symbol>
  
  <symbol id="achievement-interstellar" viewBox="0 0 24 24">
    <path d="M12 17.27L18.18 21l-1.64-7.03L22 9.24l-7.19-.61L12 2 9.19 8.63 2 9.24l5.46 4.73L5.82 21z" fill="currentColor"/>
  </symbol>
  
  <symbol id="achievement-galactic" viewBox="0 0 24 24">
    <path d="M12 2C6.48 2 2 6.48 2 12s4.48 10 10 10 10-4.48 10-10S17.52 2 12 2zm0 18c-4.42 0-8-3.58-8-8s3.58-8 8-8 8 3.58 8 8-3.58 8-8 8z" fill="currentColor"/>
    <path d="M12 4l2.35 4.76 5.26.77-3.8 3.7.9 5.24L12 16l-4.7 2.47.9-5.23-3.8-3.71 5.25-.77z" fill="currentColor"/>
  </symbol>
</svg>
